<svg version="1" xmlns="http://www.w3.org/2000/svg" width="1269.333" height="1269.333" viewBox="0 0 952.000000 952.000000"><path d="M4 386v200h4c3.3 0 4 .3 4 2 0 1.3.7 2 2 2s2 .7 2 2c0 1.7.7 2 4 2s4 .3 4 2 .7 2 4 2 4 .3 4 2 .7 2 4 2 4 .3 4 2c0 1.8.7 2 6 2s6 .2 6 2c0 1.7.7 2 4 2s4 .3 4 2c0 1.8.7 2 6 2s6 .2 6 2c0 1.7.7 2 4 2s4 .3 4 2c0 1.8.7 2 8 2s8 .2 8 2 .7 2 6 2 6 .2 6 2c0 1.9.7 2 10 2s10 .1 10 2 .7 2 10 2 10 .1 10 2 .7 2 16 2 16 .1 16 2c0 2 .7 2 76 2s76 0 76-2c0-1.9.7-2 18-2s18-.1 18-2 .7-2 12-2 12-.1 12-2 .7-2 12-2 12-.1 12-2 .7-2 12-2 12-.1 12-2c0-1.8.7-2 8-2s8-.2 8-2 .7-2 8-2 8-.2 8-2 .7-2 8-2 8-.2 8-2 .7-2 6-2 6-.2 6-2 .7-2 8-2 8-.2 8-2 .7-2 6-2 6-.2 6-2 .7-2 8-2 8-.2 8-2 .7-2 8-2 8-.2 8-2 .7-2 6-2 6-.2 6-2 .7-2 8-2 8-.2 8-2 .7-2 8-2 8-.2 8-2 .7-2 6-2 6-.2 6-2c0-1.9.7-2 10-2s10-.1 10-2c0-1.8.7-2 8-2s8-.2 8-2 .7-2 8-2 8-.2 8-2c0-1.9.7-2 12-2s12-.1 12-2 .7-2 10-2 10-.1 10-2 .7-2 12-2 12-.1 12-2 .7-2 18-2 18-.1 18-2c0-2 .7-2 46-2s46 0 46 2c0 1.9.7 2 12 2s12 .1 12 2c0 1.8.7 2 6 2s6 .2 6 2 .7 2 6 2 6 .2 6 2 .7 2 6 2 6 .2 6 2c0 1.7.7 2 4 2s4 .3 4 2 .7 2 4 2 4 .3 4 2c0 1.3.7 2 2 2s2 .7 2 2 .7 2 2 2c2 0 2-.7 2-196V186H4v200zm80-162c0 9.3.1 10 2 10 1.3 0 2-.7 2-2s.7-2 2-2 2 .7 2 2 .7 2 2 2c1.9 0 2-.7 2-10v-10h8v16c0 15.3.1 16 2 16 1.8 0 2-.7 2-6s.2-6 2-6 2-.7 2-8 .2-8 2-8c1.3 0 2-.7 2-2 0-1.7.7-2 4-2h4v4c0 3.3.3 4 2 4 1.8 0 2 .7 2 8s.2 8 2 8 2 .7 2 6 .2 6 2 6c1.9 0 2-.7 2-18v-18h14c13.3 0 14 .1 14 2 0 1.7.7 2 4 2h4v8c0 7.3-.2 8-2 8-1.3 0-2 .7-2 2s.7 2 2 2c1.9 0 2 .7 2 12v12h-8v-20h-12v20h-24v-4c0-3.3-.3-4-2-4-1.3 0-2-.7-2-2 0-1.8-.7-2-6-2h-6v12H96v-20H84v20h-8v-48h8v10zm220-8c0 1.3.7 2 2 2s2-.7 2-2c0-1.8.7-2 6-2h6v6c0 5.3.2 6 2 6 1.3 0 2-.7 2-2s.7-2 2-2c1.7 0 2-.7 2-4v-4h16v48h-6c-5.3 0-6-.2-6-2 0-1.3-.7-2-2-2-1.7 0-2-.7-2-4s-.3-4-2-4c-1.3 0-2-.7-2-2s-.7-2-2-2c-1.8 0-2 .7-2 6s-.2 6-2 6c-1.3 0-2 .7-2 2 0 1.7-.7 2-4 2s-4-.3-4-2-.7-2-4-2-4 .3-4 2c0 1.8-.7 2-6 2s-6-.2-6-2c0-1.3-.7-2-2-2s-2-.7-2-2-.7-2-2-2c-1.8 0-2-.7-2-6v-6h8v4c0 3.3.3 4 2 4 1.3 0 2 .7 2 2 0 1.7.7 2 4 2h4v-12h-4c-3.3 0-4-.3-4-2s-.7-2-4-2-4-.3-4-2c0-1.3-.7-2-2-2-1.8 0-2-.7-2-6s.2-6 2-6c1.3 0 2-.7 2-2s.7-2 2-2 2-.7 2-2c0-1.8.7-2 8-2s8 .2 8 2zm52 0c0 1.3.7 2 2 2 1.8 0 2 .7 2 6s.2 6 2 6c1.7 0 2 .7 2 4s.3 4 2 4c1.9 0 2-.7 2-12v-12h8v48h-4c-3.3 0-4-.3-4-2 0-1.3-.7-2-2-2-1.7 0-2-.7-2-4s-.3-4-2-4c-1.8 0-2-.7-2-6s-.2-6-2-6c-1.9 0-2 .7-2 12v12h-8v-48h4c3.3 0 4 .3 4 2zm140 2c0 3.3.3 4 2 4s2 .7 2 4 .3 4 2 4 2 .7 2 4 .3 4 2 4c1.9 0 2-.7 2-12v-12h8v16c0 15.3.1 16 2 16 1.8 0 2-.7 2-8s.2-8 2-8 2-.7 2-6 .2-6 2-6c1.3 0 2-.7 2-2 0-1.7.7-2 4-2h4v6c0 5.3.2 6 2 6s2 .7 2 6 .2 6 2 6c1.9 0 2-.7 2-12v-12h20v40h16v-12h4c3.3 0 4-.3 4-2 0-1.3-.7-2-2-2s-2-.7-2-2-.7-2-2-2c-1.8 0-2-.7-2-8s.2-8 2-8c1.3 0 2-.7 2-2 0-1.8.7-2 8-2s8 .2 8 2c0 1.3.7 2 2 2s2 .7 2 2 .7 2 2 2c1.7 0 2 .7 2 4v4h-4c-3.3 0-4-.3-4-2 0-1.3-.7-2-2-2s-2-.7-2-2c0-1.7-.7-2-4-2h-4v4c0 3.3.3 4 2 4 1.3 0 2 .7 2 2 0 1.7.7 2 4 2s4 .3 4 2c0 1.3.7 2 2 2s2 .7 2 2 .7 2 2 2c1.8 0 2 .7 2 6s-.2 6-2 6c-1.3 0-2 .7-2 2s-.7 2-2 2-2 .7-2 2c0 1.8-.7 2-6 2s-6-.2-6-2c0-1.7-.7-2-4-2s-4 .3-4 2c0 1.9-.7 2-12 2s-12-.1-12-2c0-1.3-.7-2-2-2s-2 .7-2 2c0 1.8-.7 2-6 2s-6-.2-6-2c0-1.3-.7-2-2-2-1.7 0-2-.7-2-4v-4h-12v12h-8c-7.3 0-8-.2-8-2 0-1.3-.7-2-2-2-1.7 0-2-.7-2-4s-.3-4-2-4c-1.8 0-2-.7-2-6s-.2-6-2-6c-1.9 0-2 .7-2 12v12h-8v-48h8v4zm240-2c0 1.3.7 2 2 2s2 .7 2 2 .7 2 2 2c1.8 0 2 .7 2 6s.2 6 2 6c1.9 0 2-.7 2-10v-10h24v4c0 3.3.3 4 2 4s2-.7 2-4v-4h8c7.3 0 8 .2 8 2 0 1.3.7 2 2 2s2 .7 2 2 .7 2 2 2c1.7 0 2-.7 2-4v-4h8v10c0 9.3.1 10 2 10 1.8 0 2-.7 2-8v-8h4c3.3 0 4-.3 4-2 0-1.8.7-2 6-2s6 .2 6 2c0 1.3.7 2 2 2s2 .7 2 2 .7 2 2 2c1.7 0 2-.7 2-4v-4h4c3.3 0 4 .3 4 2 0 1.3.7 2 2 2 1.7 0 2 .7 2 4s.3 4 2 4 2 .7 2 4 .3 4 2 4c1.9 0 2-.7 2-10v-10h8v48h-8v-4c0-3.3-.3-4-2-4s-2-.7-2-4-.3-4-2-4c-1.8 0-2-.7-2-6s-.2-6-2-6c-1.9 0-2 .7-2 14v14h-14c-13.3 0-14-.1-14-2 0-1.3-.7-2-2-2s-2-.7-2-2-.7-2-2-2c-1.8 0-2-.7-2-6s-.2-6-2-6c-1.9 0-2 .7-2 10v10h-8v-4c0-3.3-.3-4-2-4-1.3 0-2 .7-2 2s-.7 2-2 2-2 .7-2 2c0 1.8-.7 2-6 2s-6-.2-6-2c0-1.7-.7-2-4-2s-4 .3-4 2c0 1.9-.7 2-12 2h-12v-12c0-11.3-.1-12-2-12-1.8 0-2 .7-2 8s-.2 8-2 8c-1.3 0-2 .7-2 2s-.7 2-2 2-2 .7-2 2c0 1.9-.7 2-10 2h-10v-48h10c9.3 0 10 .1 10 2zm-568 60c0 1.3.7 2 2 2s2 .7 2 2 .7 2 2 2 2 .7 2 2 .7 2 2 2 2 .7 2 2 .7 2 2 2 2 .7 2 2 .7 2 2 2 2 .7 2 2c0 1.9-.7 2-10 2s-10-.1-10-2c0-1.3-.7-2-2-2s-2-.7-2-2-.7-2-2-2-2-.7-2-2-.7-2-2-2-2 .7-2 2-.7 2-2 2-2 .7-2 2-.7 2-2 2-2 .7-2 2c0 1.9-.7 2-10 2s-10-.1-10-2c0-1.3.7-2 2-2s2-.7 2-2 .7-2 2-2 2-.7 2-2 .7-2 2-2 2-.7 2-2 .7-2 2-2 2-.7 2-2 .7-2 2-2 2-.7 2-2c0-1.9.7-2 10-2s10 .1 10 2zm552 0c0 1.3.7 2 2 2s2 .7 2 2 .7 2 2 2 2 .7 2 2 .7 2 2 2 2 .7 2 2 .7 2 2 2 2 .7 2 2 .7 2 2 2 2 .7 2 2c0 1.8-.7 2-8 2s-8-.2-8-2c0-1.3-.7-2-2-2s-2-.7-2-2c0-1.7-.7-2-4-2s-4-.3-4-2c0-1.3-.7-2-2-2s-2 .7-2 2-.7 2-2 2-2 .7-2 2-.7 2-2 2-2 .7-2 2c0 1.8-.7 2-8 2h-8v-8h4c3.3 0 4-.3 4-2 0-1.3.7-2 2-2s2-.7 2-2 .7-2 2-2c1.7 0 2-.7 2-4v-4h10c9.3 0 10 .1 10 2zm-604 34v8H84v216H68V318H36v-16h80v8zm76 0v8h-48v60h44v12h-44v68h48v16h-64V302h64v8zm84 0v8h-32v156h-16V318h-32v-16h80v8zm76 0v8h-48v60h44v12h-44v68h24c23.3 0 24 .1 24 2 0 1.3.7 2 2 2 1.7 0 2 .7 2 4s-.3 4-2 4c-1.3 0-2 .7-2 2 0 2-.7 2-30 2s-30 0-30-2c0-1.3-.7-2-2-2-2 0-2-.7-2-84v-84h64v8zm108-4v4h-4c-3.3 0-4 .3-4 2 0 1.3-.7 2-2 2s-2 .7-2 2-.7 2-2 2-2 .7-2 2-.7 2-2 2-2 .7-2 2-.7 2-2 2-2 .7-2 2c0 1.8-.7 2-8 2h-8v-4c0-3.3.3-4 2-4 1.3 0 2-.7 2-2s.7-2 2-2 2-.7 2-2 .7-2 2-2 2-.7 2-2 .7-2 2-2 2-.7 2-2 .7-2 2-2 2-.7 2-2c0-1.9.7-2 10-2h10v4zm24 4c0 7.3.2 8 2 8s2 .7 2 8 .2 8 2 8 2 .7 2 8 .2 8 2 8c1.9 0 2 .7 2 10s.1 10 2 10c1.8 0 2 .7 2 8s.2 8 2 8 2 .7 2 8 .2 8 2 8 2 .7 2 8 .2 8 2 8 2 .7 2 8 .2 8 2 8 2 .7 2 8 .2 8 2 8c1.9 0 2 .7 2 12v12h-6c-5.3 0-6-.2-6-2 0-1.3-.7-2-2-2-1.9 0-2-.7-2-10s-.1-10-2-10c-1.8 0-2-.7-2-8s-.2-8-2-8-2-.7-2-8-.2-8-2-8c-1.3 0-2-.7-2-2 0-1.9-.7-2-18-2h-18v8c0 7.3-.2 8-2 8s-2 .7-2 8-.2 8-2 8-2 .7-2 8-.2 8-2 8-2 .7-2 6v6h-16v-4c0-3.3.3-4 2-4 1.8 0 2-.7 2-8s.2-8 2-8c1.9 0 2-.7 2-10s.1-10 2-10c1.8 0 2-.7 2-8s.2-8 2-8 2-.7 2-8 .2-8 2-8 2-.7 2-8 .2-8 2-8c1.9 0 2-.7 2-10s.1-10 2-10c1.8 0 2-.7 2-8s.2-8 2-8 2-.7 2-8 .2-8 2-8 2-.7 2-8 .2-8 2-8 2-.7 2-6v-6h16v8zm184 0v8h-32v216h-16V318h-14c-13.3 0-14-.1-14-2 0-1.3-.7-2-2-2-1.7 0-2-.7-2-4s.3-4 2-4c1.3 0 2-.7 2-2 0-2 .7-2 38-2h38v8zm76 0v8h-48v60h44v12h-44v68h52v6c0 5.3-.2 6-2 6-1.3 0-2 .7-2 2 0 2-.7 2-32 2h-32V302h64v8zm84 0v8h-32v156h-16V318h-28v-16h76v8zm76 0v8h-48v60h44v12h-44v68h52v6c0 5.3-.2 6-2 6-1.3 0-2 .7-2 2 0 2-.7 2-30 2s-30 0-30-2c0-1.3-.7-2-2-2-2 0-2-.7-2-84v-84h64v8zm-492 98v6h-40v-12h40v6zm164 0v6h-40v-12h40v6z"/><path d="M152 228v6h12v-4c0-3.3-.3-4-2-4-1.3 0-2-.7-2-2 0-1.7-.7-2-4-2h-4v6zM116 238v4h4c3.3 0 4-.3 4-2 0-1.3-.7-2-2-2s-2-.7-2-2-.7-2-2-2c-1.7 0-2 .7-2 4zM292 228v6h6c5.3 0 6 .2 6 2 0 1.3.7 2 2 2 1.7 0 2-.7 2-4v-4h-8v-8h-8v6zM332 226c0 3.3-.3 4-2 4-1.8 0-2 .7-2 6s.2 6 2 6c1.7 0 2 .7 2 4s.3 4 2 4c1.9 0 2-.7 2-14s-.1-14-2-14c-1.7 0-2 .7-2 4zM316 228c0 1.3.7 2 2 2s2-.7 2-2-.7-2-2-2-2 .7-2 2zM528 236c0 5.3.2 6 2 6s2-.7 2-6-.2-6-2-6-2 .7-2 6zM544 246c0 3.3.3 4 2 4s2-.7 2-4-.3-4-2-4-2 .7-2 4zM588 248v6h4c3.3 0 4-.3 4-2 0-1.3.7-2 2-2s2-.7 2-2-.7-2-2-2-2-.7-2-2c0-1.7-.7-2-4-2h-4v6zM724 238v16h4c3.3 0 4-.3 4-2 0-1.3.7-2 2-2 1.9 0 2-.7 2-12s-.1-12-2-12c-1.3 0-2-.7-2-2 0-1.7-.7-2-4-2h-4v16zM756 228v6h16v8h-16v12h16v-12h8v12h4c3.3 0 4-.3 4-2 0-1.3.7-2 2-2s2-.7 2-2-.7-2-2-2-2-.7-2-2c0-1.7-.7-2-4-2s-4-.3-4-2c0-1.3-.7-2-2-2s-2-.7-2-2-.7-2-2-2c-1.8 0-2-.7-2-6v-6h-16v6zM780 226c0 3.3.3 4 2 4 1.3 0 2 .7 2 2 0 1.7.7 2 4 2s4 .3 4 2c0 1.3.7 2 2 2s2 .7 2 2 .7 2 2 2c1.8 0 2-.7 2-6v-6h-4c-3.3 0-4-.3-4-2 0-1.3-.7-2-2-2s-2-.7-2-2c0-1.7-.7-2-4-2h-4v4zM820 230c0 7.3.2 8 2 8 1.3 0 2-.7 2-2 0-1.8.7-2 6-2s6 .2 6 2c0 1.3.7 2 2 2 1.7 0 2-.7 2-4v-4h-4c-3.3 0-4-.3-4-2 0-1.3-.7-2-2-2s-2-.7-2-2c0-1.7-.7-2-4-2h-4v8zM820 248v6h4c3.3 0 4-.3 4-2 0-1.3.7-2 2-2 1.7 0 2-.7 2-4v-4h-12v6zM472 348c0 9.3-.1 10-2 10s-2 .7-2 10-.1 10-2 10c-1.8 0-2 .7-2 8s-.2 8-2 8c-1.7 0-2 .7-2 4v4h16c15.3 0 16-.1 16-2 0-1.3-.7-2-2-2-1.8 0-2-.7-2-8s-.2-8-2-8-2-.7-2-8-.2-8-2-8-2-.7-2-8-.2-8-2-8-2-.7-2-6-.2-6-2-6c-1.9 0-2 .7-2 10z"/></svg>